<svg width="351" height="443" viewBox="0 0 351 443" fill="none" xmlns="http://www.w3.org/2000/svg">
<path d="M234.899 71.3602H223.04C222.436 71.3592 221.856 71.0048 221.428 70.3749C221.001 69.7449 220.76 68.8908 220.76 68V50.5268C220.76 49.636 221.001 48.7819 221.428 48.1519C221.856 47.522 222.436 47.1676 223.04 47.1666H234.899C235.504 47.1676 236.084 47.522 236.511 48.1519C236.939 48.7819 237.179 49.636 237.18 50.5268V68C237.179 68.8908 236.939 69.7449 236.511 70.3749C236.084 71.0048 235.504 71.3592 234.899 71.3602ZM223.04 48.5107C222.678 48.5113 222.33 48.7239 222.073 49.1019C221.817 49.4798 221.672 49.9923 221.672 50.5268V68C221.672 68.5345 221.817 69.047 222.073 69.4249C222.33 69.8029 222.678 70.0155 223.04 70.0161H234.899C235.262 70.0155 235.61 69.8029 235.866 69.4249C236.123 69.047 236.267 68.5345 236.268 68V50.5268C236.267 49.9923 236.123 49.4798 235.866 49.1019C235.61 48.7239 235.262 48.5113 234.899 48.5107H223.04Z" fill="#E6E6E6"/>
<path d="M227.601 62.6236H215.742C215.138 62.6226 214.558 62.2682 214.131 61.6383C213.703 61.0084 213.463 60.1543 213.462 59.2634V41.7903C213.463 40.8994 213.703 40.0453 214.131 39.4154C214.558 38.7854 215.138 38.4311 215.742 38.4301H227.601C228.206 38.4311 228.786 38.7854 229.213 39.4154C229.641 40.0453 229.881 40.8994 229.882 41.7903V59.2634C229.881 60.1543 229.641 61.0084 229.213 61.6383C228.786 62.2682 228.206 62.6226 227.601 62.6236ZM215.742 39.7741C215.38 39.7747 215.032 39.9873 214.775 40.3653C214.519 40.7433 214.375 41.2557 214.374 41.7903V59.2634C214.375 59.7979 214.519 60.3104 214.775 60.6884C215.032 61.0663 215.38 61.2789 215.742 61.2795H227.601C227.964 61.2789 228.312 61.0663 228.569 60.6884C228.825 60.3104 228.969 59.7979 228.97 59.2634V41.7903C228.969 41.2557 228.825 40.7433 228.569 40.3653C228.312 39.9873 227.964 39.7747 227.601 39.7741H215.742Z" fill="#E6E6E6"/>
<path d="M21.4374 208.457H9.57843C8.97379 208.456 8.39412 208.102 7.96658 207.472C7.53904 206.842 7.29854 205.988 7.29785 205.097V187.624C7.29854 186.733 7.53904 185.879 7.96658 185.249C8.39412 184.619 8.97379 184.264 9.57843 184.263H21.4374C22.042 184.264 22.6217 184.619 23.0493 185.249C23.4768 185.879 23.7173 186.733 23.718 187.624V205.097C23.7173 205.988 23.4768 206.842 23.0493 207.472C22.6217 208.102 22.042 208.456 21.4374 208.457ZM9.57843 185.608C9.21564 185.608 8.86783 185.821 8.6113 186.199C8.35477 186.577 8.21048 187.089 8.21008 187.624V205.097C8.21048 205.631 8.35477 206.144 8.6113 206.522C8.86783 206.9 9.21564 207.112 9.57843 207.113H21.4374C21.8002 207.112 22.148 206.9 22.4045 206.522C22.6611 206.144 22.8054 205.631 22.8058 205.097V187.624C22.8054 187.089 22.6611 186.577 22.4045 186.199C22.148 185.821 21.8002 185.608 21.4374 185.608H9.57843Z" fill="#E6E6E6"/>
<path d="M14.1396 199.72H2.28057C1.67594 199.719 1.09627 199.365 0.668728 198.735C0.241188 198.105 0.000691722 197.251 0 196.36V178.887C0.000691722 177.996 0.241188 177.142 0.668728 176.512C1.09627 175.882 1.67594 175.528 2.28057 175.527H14.1396C14.7442 175.528 15.3239 175.882 15.7514 176.512C16.1789 177.142 16.4194 177.996 16.4201 178.887V196.36C16.4194 197.251 16.1789 198.105 15.7514 198.735C15.3239 199.365 14.7442 199.719 14.1396 199.72ZM2.28057 176.871C1.91779 176.872 1.56997 177.084 1.31345 177.462C1.05692 177.84 0.912625 178.353 0.912229 178.887V196.36C0.912625 196.895 1.05692 197.407 1.31345 197.785C1.56997 198.163 1.91779 198.376 2.28057 198.376H14.1396C14.5023 198.376 14.8502 198.163 15.1067 197.785C15.3632 197.407 15.5075 196.895 15.5079 196.36V178.887C15.5075 178.353 15.3632 177.84 15.1067 177.462C14.8502 177.084 14.5023 176.872 14.1396 176.871H2.28057Z" fill="#E6E6E6"/>
<path d="M42.1588 0.821626H151.907C157.203 0.821615 162.341 3.47642 166.478 8.34965C170.614 13.2229 173.501 20.0245 174.666 27.6366L230.12 390.047C230.725 394 230.735 398.1 230.151 402.06C229.567 406.02 228.402 409.743 226.737 412.969C225.073 416.195 222.95 418.846 220.517 420.735C218.084 422.625 215.4 423.707 212.653 423.906L99.8315 432.097C93.7902 432.535 87.847 429.72 83.1109 424.177C78.3748 418.633 75.1694 410.74 74.0927 401.971L42.6361 145.742L40.2958 146.727L34.2769 98.1626L36.6858 97.2752L27.9052 25.7527C27.5291 22.6892 27.6163 19.5413 28.1606 16.5332C28.7049 13.5251 29.6929 10.7309 31.0542 8.34998C32.4154 5.96901 34.1164 4.05984 36.0359 2.75855C37.9553 1.45726 40.046 0.79589 42.1588 0.821626Z" fill="#2F2E41" fill-opacity="0.5"/>
<path d="M137.459 8.63428H150.27C153.949 8.63428 157.517 10.4882 160.383 13.8882C163.248 17.2883 165.238 22.03 166.022 27.3261L219.25 386.78C219.557 388.85 219.556 390.992 219.249 393.062C218.942 395.131 218.336 397.078 217.471 398.771C216.607 400.463 215.504 401.86 214.239 402.868C212.975 403.875 211.577 404.468 210.143 404.606L97.6858 415.466C94.5132 415.772 91.3751 414.347 88.8703 411.461C86.3656 408.576 84.6696 404.433 84.106 399.822L38.6863 28.2917C38.3923 25.887 38.4601 23.4165 38.8849 21.0546C39.3097 18.6928 40.0811 16.497 41.1448 14.6224C42.2084 12.7477 43.5383 11.2399 45.0406 10.2052C46.5429 9.17057 48.181 8.63432 49.8394 8.63432H61.9925C63.1688 8.63432 64.3122 9.20565 65.2459 10.2599C66.1795 11.3141 66.8512 12.7924 67.157 14.4659C67.4269 15.9433 68.0199 17.2484 68.8441 18.1791C69.6684 19.1098 70.6778 19.6142 71.7163 19.6142H129.412C131.445 19.6142 133.404 18.4833 134.896 16.4476C136.387 14.412 137.303 11.6215 137.459 8.63428Z" fill="white"/>
<path d="M47.4355 69.7513H169.435L182.432 156.038L58.8384 159.398L47.4355 69.7513Z" fill="#FB8700"/>
<path d="M163.289 233.157H192.011L192.923 241.259H164.201L163.289 233.157Z" fill="#FB8700"/>
<path d="M186.658 191.828L64.8457 195.629L64.8578 196.473L186.67 192.673L186.658 191.828Z" fill="#2F2E41"/>
<path d="M190.383 216.744L66.2783 220.967L66.2916 221.812L190.397 217.589L190.383 216.744Z" fill="#2F2E41"/>
<path d="M175.148 319.851H203.87L204.783 327.952H176.061L175.148 319.851Z" fill="#F09E3E"/>
<path d="M198.517 278.522L76.7051 282.322L76.7172 283.167L198.529 279.366L198.517 278.522Z" fill="#2F2E41"/>
<path d="M202.243 303.438L78.1377 307.661L78.1509 308.505L202.256 304.282L202.243 303.438Z" fill="#2F2E41"/>
<path d="M280.766 434.403L275.331 434.402L272.746 403.517L280.767 403.518L280.766 434.403Z" fill="#A0616A"/>
<path d="M282.152 442.164L264.629 442.163V441.837C264.629 439.172 265.348 436.616 266.627 434.731C267.906 432.846 269.641 431.788 271.449 431.788L282.153 431.788L282.152 442.164Z" fill="#2F2E41"/>
<path d="M348.279 429.159L342.989 430.995L335.667 401.805L343.474 399.096L348.279 429.159Z" fill="#A0616A"/>
<path d="M350.835 436.246L333.778 442.164L333.727 441.847C333.313 439.252 333.615 436.522 334.567 434.255C335.518 431.989 337.042 430.372 338.803 429.761L349.221 426.146L350.835 436.246Z" fill="#2F2E41"/>
<path d="M279.655 304.133C279.665 302.524 279.989 264.54 287.055 250.177L287.16 249.966L311.786 254.971L311.236 262.944C312.319 264.496 320.839 277.614 323.3 308.679L349.439 412.116L337.287 413.744L301.315 300.829L282.279 423.567H270.232L279.655 304.133Z" fill="#142321" fill-opacity="0.8"/>
<path d="M284.171 251.579L286.578 232.957C286.107 232.064 284.019 227.771 284.484 222.74C284.787 219.457 286.117 216.579 288.437 214.182L294.677 192.731L294.761 192.658C295.181 192.293 305.116 183.829 310.532 191.815C310.667 191.969 324.003 207.566 318.648 228.606L312.037 257.83L284.171 251.579Z" fill="#CCCCCC"/>
<path d="M275.795 276.772C276.444 276.662 277.069 276.345 277.626 275.841C278.183 275.337 278.658 274.66 279.018 273.856C279.378 273.053 279.614 272.143 279.709 271.19C279.804 270.238 279.757 269.267 279.57 268.344L292.455 254.665L284.741 250.342L273.688 263.995C272.657 264.56 271.803 265.664 271.287 267.095C270.771 268.527 270.63 270.187 270.89 271.762C271.15 273.337 271.792 274.717 272.696 275.64C273.601 276.563 274.703 276.966 275.795 276.772Z" fill="#A0616A"/>
<path d="M278.164 254.643L297.836 231.806L291.988 202.365C291.712 200.971 291.634 199.509 291.759 198.068C291.884 196.628 292.208 195.241 292.713 193.993C293.18 192.817 293.808 191.798 294.558 191C295.308 190.203 296.162 189.645 297.067 189.363C300.435 188.313 303.492 191.091 306.151 197.622L306.172 197.681C306.612 199.266 316.86 236.593 309.035 244.575C301.38 252.383 283.629 263.75 283.451 263.865L283.243 263.997L278.164 254.643Z" fill="#CCCCCC"/>
<path d="M304.309 184.051C310.891 184.051 316.226 176.189 316.226 166.492C316.226 156.794 310.891 148.933 304.309 148.933C297.727 148.933 292.392 156.794 292.392 166.492C292.392 176.189 297.727 184.051 304.309 184.051Z" fill="#A0616A"/>
<path d="M322.992 160.224C328.815 160.224 333.535 153.269 333.535 144.69C333.535 136.111 328.815 129.156 322.992 129.156C317.169 129.156 312.449 136.111 312.449 144.69C312.449 153.269 317.169 160.224 322.992 160.224Z" fill="#2F2E41"/>
<path d="M332.087 157.553C330.722 159.006 329.141 159.956 327.476 160.325C325.811 160.693 324.11 160.469 322.516 159.67C320.922 158.871 319.481 157.522 318.314 155.735C317.146 153.947 316.286 151.774 315.806 149.396C315.988 151.527 316.467 153.579 317.214 155.422C317.962 157.266 318.96 158.862 320.147 160.108C321.334 161.354 322.683 162.225 324.11 162.664C325.536 163.103 327.009 163.102 328.436 162.66C329.862 162.219 331.211 161.346 332.396 160.097C333.582 158.849 334.58 157.252 335.325 155.407C336.071 153.562 336.549 151.509 336.729 149.378C336.909 147.247 336.788 145.084 336.372 143.026C336.608 145.791 336.335 148.599 335.581 151.155C334.827 153.711 333.62 155.921 332.087 157.553Z" fill="#2F2E41"/>
<path d="M290.479 157.57C292.32 152.715 293.024 150.687 295.397 147.735C297.496 145.124 300.077 144.357 302.159 146.831C304.622 145.263 307.363 144.908 309.974 145.817C312.585 146.727 314.927 148.853 316.653 151.881C318.378 154.908 319.395 158.675 319.552 162.621C319.709 166.568 318.997 170.483 317.524 173.787C316.05 177.09 313.892 179.605 311.371 180.958C308.85 182.311 306.1 182.429 303.53 181.296C300.959 180.162 298.706 177.837 297.103 174.666C295.501 171.495 294.636 167.647 294.636 163.694C294.638 163 294.666 162.306 294.721 161.617C292.911 161.242 292.289 157.945 290.479 157.57Z" fill="#2F2E41"/>
</svg>
