<svg width="2003" height="892" viewBox="0 0 2003 892" fill="none" xmlns="http://www.w3.org/2000/svg">
<path opacity="0.8" d="M0.128879 719.719C-2.06408 735.812 22.8897 769.33 139.731 774.597C263.083 780.157 279.438 797.457 295.018 813.938C297.885 816.971 300.726 819.976 304.203 822.875C326.571 841.528 362.097 860.18 487.096 845.368C612.094 830.555 734.462 825.618 827.882 860.729C902.618 888.818 974.964 892 1001.56 892C1028.17 892 1100.51 888.818 1175.25 860.729C1268.67 825.618 1391.03 830.555 1516.03 845.368C1641.03 860.18 1676.56 841.528 1698.93 822.875C1702.4 819.976 1705.24 816.971 1708.11 813.938C1723.69 797.457 1740.05 780.157 1863.4 774.597C1980.24 769.33 2005.06 735.828 2002.87 719.735V0H2001.27C1993.78 17.1641 1960.11 40.8699 1863.4 45.2295C1740.05 50.7897 1723.69 68.0901 1708.11 84.571C1705.24 87.6037 1702.4 90.6087 1698.93 93.5076C1676.56 112.16 1641.03 130.813 1516.03 116.001C1391.03 101.188 1268.67 96.2506 1175.25 131.362C1100.51 159.451 1028.17 162.633 1001.56 162.633C974.964 162.633 902.618 159.451 827.882 131.362C734.462 96.2506 612.094 101.188 487.096 116.001C362.097 130.813 326.571 112.16 304.203 93.5076C300.726 90.6087 297.885 87.6037 295.018 84.571C279.438 68.0901 263.083 50.7897 139.731 45.2295C43.0149 40.8699 9.347 17.1641 1.86196 0H0.258324L0.128879 719.719Z" fill="url(#paint0_linear_144_2792)"/>
<defs>
<linearGradient id="paint0_linear_144_2792" x1="1001.5" y1="0" x2="1001.5" y2="892" gradientUnits="userSpaceOnUse">
<stop stop-color="#ED374D" stop-opacity="0.7"/>
<stop offset="0.489583" stop-color="#FA793F"/>
<stop offset="1" stop-color="#F7F651"/>
</linearGradient>
</defs>
</svg>
